<svg xmlns="http://www.w3.org/2000/svg" xmlns:xlink="http://www.w3.org/1999/xlink" width="2944" zoomAndPan="magnify" viewBox="0 0 2208 1124.99995" height="1500" preserveAspectRatio="xMidYMid meet" version="1.0"><defs><g/><clipPath id="f4824be18e"><rect x="0" width="1981" y="0" height="1120"/></clipPath></defs><g transform="matrix(1, 0, 0, 1, 77, 5)"><g clip-path="url(#f4824be18e)"><g fill="#000000" fill-opacity="1"><g transform="translate(1.870932, 1051.955396)"><g><path d="M 239.171875 -845.46875 L 239.171875 -570.140625 L 275.328125 -570.140625 C 308.703125 -570.140625 332.34375 -584.273438 346.25 -612.546875 C 360.15625 -640.828125 367.109375 -672.578125 367.109375 -707.796875 C 367.109375 -761.566406 358.066406 -797.953125 339.984375 -816.953125 C 321.910156 -835.960938 297.578125 -845.46875 266.984375 -845.46875 Z M 58.40625 0 L 58.40625 -990.09375 L 261.421875 -990.09375 C 318.898438 -990.09375 369.191406 -981.285156 412.296875 -963.671875 C 455.410156 -946.054688 488.785156 -916.617188 512.421875 -875.359375 C 536.066406 -834.109375 547.890625 -778.71875 547.890625 -709.1875 C 547.890625 -681.382812 544.644531 -651.722656 538.15625 -620.203125 C 531.664062 -588.679688 520.769531 -559.242188 505.46875 -531.890625 C 490.175781 -504.546875 469.085938 -482.992188 442.203125 -467.234375 L 549.28125 0 L 367.109375 0 L 282.28125 -425.515625 L 239.171875 -425.515625 L 239.171875 0 Z M 58.40625 0 "/></g></g></g><g fill="#000000" fill-opacity="1"><g transform="translate(516.38364, 1051.955396)"><g><path d="M 20.859375 -286.453125 L 182.171875 -286.453125 C 182.171875 -267.910156 183.328125 -246.585938 185.640625 -222.484375 C 187.960938 -198.390625 194.453125 -177.535156 205.109375 -159.921875 C 215.773438 -142.304688 234.082031 -133.5 260.03125 -133.5 C 289.695312 -133.5 310.554688 -144.390625 322.609375 -166.171875 C 334.660156 -187.960938 340.6875 -209.054688 340.6875 -229.453125 C 340.6875 -259.109375 332.804688 -285.523438 317.046875 -308.703125 C 301.285156 -331.878906 280.890625 -354.128906 255.859375 -375.453125 C 230.835938 -396.773438 204.421875 -418.5625 176.609375 -440.8125 C 148.796875 -463.0625 122.375 -488.09375 97.34375 -515.90625 C 72.3125 -543.71875 51.914062 -575.703125 36.15625 -611.859375 C 20.394531 -648.015625 12.515625 -690.65625 12.515625 -739.78125 C 12.515625 -789.84375 21.320312 -835.269531 38.9375 -876.0625 C 56.550781 -916.851562 82.738281 -949.300781 117.5 -973.40625 C 152.269531 -997.507812 195.144531 -1009.5625 246.125 -1009.5625 C 300.820312 -1009.5625 344.625 -996.8125 377.53125 -971.3125 C 410.445312 -945.820312 434.785156 -910.363281 450.546875 -864.9375 C 466.304688 -819.507812 474.648438 -767.128906 475.578125 -707.796875 L 314.265625 -707.796875 C 314.265625 -726.335938 313.335938 -747.195312 311.484375 -770.375 C 309.628906 -793.550781 303.601562 -813.710938 293.40625 -830.859375 C 283.207031 -848.015625 266.054688 -856.59375 241.953125 -856.59375 C 220.640625 -856.59375 203.957031 -848.25 191.90625 -831.5625 C 179.851562 -814.875 173.828125 -793.085938 173.828125 -766.203125 C 173.828125 -738.390625 181.707031 -712.894531 197.46875 -689.71875 C 213.226562 -666.550781 233.617188 -644.070312 258.640625 -622.28125 C 283.671875 -600.5 310.09375 -577.785156 337.90625 -554.140625 C 365.71875 -530.503906 392.140625 -504.546875 417.171875 -476.265625 C 442.203125 -447.992188 462.597656 -415.78125 478.359375 -379.625 C 494.117188 -343.46875 502 -301.285156 502 -253.078125 C 502 -202.097656 492.492188 -156.210938 473.484375 -115.421875 C 454.484375 -74.628906 426.671875 -41.945312 390.046875 -17.375 C 353.429688 7.1875 307.773438 19.46875 253.078125 19.46875 C 204.878906 19.46875 165.484375 10.195312 134.890625 -8.34375 C 104.296875 -26.882812 80.882812 -51.453125 64.65625 -82.046875 C 48.4375 -112.640625 37.082031 -145.78125 30.59375 -181.46875 C 24.101562 -217.15625 20.859375 -252.148438 20.859375 -286.453125 Z M 20.859375 -286.453125 "/></g></g></g><g fill="#000000" fill-opacity="1"><g transform="translate(979.445044, 1051.955396)"><g><path d="M 141.84375 0 L 141.84375 -837.125 L -13.90625 -837.125 L -13.90625 -990.09375 L 478.359375 -990.09375 L 478.359375 -837.125 L 322.609375 -837.125 L 322.609375 0 Z M 141.84375 0 "/></g></g></g><g fill="#000000" fill-opacity="1"><g transform="translate(1392.445644, 1051.955396)"><g><path d="M 58.40625 0 L 58.40625 -990.09375 L 239.171875 -990.09375 L 239.171875 -575.703125 L 241.953125 -575.703125 L 392.140625 -990.09375 L 553.453125 -990.09375 L 418.5625 -657.75 L 581.265625 0 L 407.4375 0 L 307.3125 -443.59375 L 304.53125 -443.59375 L 239.171875 -287.84375 L 239.171875 0 Z M 58.40625 0 "/></g></g></g></g></g></svg>